<svg width="48" height="48" viewBox="0 0 48 48" fill="none" xmlns="http://www.w3.org/2000/svg">
<circle cx="24" cy="24" r="23.5" fill="#0849A3" stroke="white"/>
<path d="M29.832 26.208L32.104 26.176V27.488C31.848 27.4453 31.5493 27.424 31.208 27.424C30.8667 27.424 30.4827 27.4453 30.056 27.488C30.056 29.1307 29.2667 30.7947 27.688 32.48C26.1093 34.1653 24.2 35.5307 21.96 36.576C19.7413 37.6427 17.672 38.176 15.752 38.176C14.7493 38.176 13.928 37.92 13.288 37.408C12.6693 36.896 12.36 36.224 12.36 35.392C12.36 34.1547 13.1813 32.864 14.824 31.52C16.4667 30.176 18.3867 29.0667 20.584 28.192C22.7813 27.3173 24.7653 26.8053 26.536 26.656C26.3227 26.336 25.992 26.0587 25.544 25.824C25.096 25.5893 24.1787 25.2267 22.792 24.736C21.4053 24.224 20.424 23.6693 19.848 23.072C19.272 22.4533 18.984 21.5893 18.984 20.48C18.984 19.3707 19.5813 18.1013 20.776 16.672C21.9707 15.2427 23.3787 14.048 25 13.088C26.6427 12.1067 28.0827 11.616 29.32 11.616C29.8747 11.616 30.3333 11.8187 30.696 12.224C31.0587 12.608 31.24 13.088 31.24 13.664C31.24 14.6027 30.6747 15.7867 29.544 17.216C28.4133 18.624 27.1547 19.7013 25.768 20.448L25 19.36C25.832 18.9333 26.5573 18.272 27.176 17.376C27.816 16.4587 28.136 15.6693 28.136 15.008C28.136 14.3467 27.784 14.016 27.08 14.016C26.0773 14.016 24.9253 14.6453 23.624 15.904C22.344 17.1413 21.704 18.304 21.704 19.392C21.704 20.1387 21.896 20.7253 22.28 21.152C22.664 21.5787 23.6347 22.112 25.192 22.752C26.7493 23.3707 27.8587 23.9253 28.52 24.416C29.1813 24.8853 29.6187 25.4827 29.832 26.208ZM15.56 34.56C15.56 35.584 16.392 36.096 18.056 36.096C18.9733 36.096 20.1573 35.7547 21.608 35.072C23.08 34.4107 24.3707 33.472 25.48 32.256C26.6107 31.0613 27.176 29.8347 27.176 28.576C27.176 28.4267 27.144 28.2027 27.08 27.904C24.1573 28.1813 21.5013 29.0027 19.112 30.368C16.744 31.7333 15.56 33.1307 15.56 34.56Z" fill="white"/>
</svg>
