<svg width="38" height="41" viewBox="0 0 38 41" fill="none" xmlns="http://www.w3.org/2000/svg">
<rect x="0.5" y="0.5" width="25" height="40" rx="4.5" fill="#0849A3" stroke="white"/>
<rect x="8.5" y="6.5" width="29" height="28" rx="4.5" fill="#7D22C7" stroke="white"/>
<mask id="path-3-outside-1_0_1" maskUnits="userSpaceOnUse" x="15" y="10" width="15" height="21" fill="black">
<rect fill="white" x="15" y="10" width="15" height="21"/>
<path d="M26.6591 15.9091C26.5568 15.0455 26.142 14.375 25.4148 13.8977C24.6875 13.4205 23.7955 13.1818 22.7386 13.1818C21.9659 13.1818 21.2898 13.3068 20.7102 13.5568C20.1364 13.8068 19.6875 14.1506 19.3636 14.5881C19.0455 15.0256 18.8864 15.5227 18.8864 16.0795C18.8864 16.5455 18.9972 16.946 19.2188 17.2812C19.446 17.6108 19.7358 17.8864 20.0881 18.108C20.4403 18.3239 20.8097 18.5028 21.196 18.6449C21.5824 18.7812 21.9375 18.892 22.2614 18.9773L24.0341 19.4545C24.4886 19.5739 24.9943 19.7386 25.5511 19.9489C26.1136 20.1591 26.6506 20.446 27.1619 20.8097C27.679 21.1676 28.1051 21.6278 28.4403 22.1903C28.7756 22.7528 28.9432 23.4432 28.9432 24.2614C28.9432 25.2045 28.696 26.0568 28.2017 26.8182C27.7131 27.5795 26.9972 28.1847 26.054 28.6335C25.1165 29.0824 23.9773 29.3068 22.6364 29.3068C21.3864 29.3068 20.304 29.1051 19.3892 28.7017C18.4801 28.2983 17.7642 27.7358 17.2415 27.0142C16.7244 26.2926 16.4318 25.4545 16.3636 24.5H18.5455C18.6023 25.1591 18.8239 25.7045 19.2102 26.1364C19.6023 26.5625 20.0966 26.8807 20.6932 27.0909C21.2955 27.2955 21.9432 27.3977 22.6364 27.3977C23.4432 27.3977 24.1676 27.267 24.8097 27.0057C25.4517 26.7386 25.9602 26.3693 26.3352 25.8977C26.7102 25.4205 26.8977 24.8636 26.8977 24.2273C26.8977 23.6477 26.7358 23.1761 26.4119 22.8125C26.0881 22.4489 25.6619 22.1534 25.1335 21.9261C24.6051 21.6989 24.0341 21.5 23.4205 21.3295L21.2727 20.7159C19.9091 20.3239 18.8295 19.7642 18.0341 19.0369C17.2386 18.3097 16.8409 17.358 16.8409 16.1818C16.8409 15.2045 17.1051 14.3523 17.6335 13.625C18.1676 12.892 18.8835 12.3239 19.7812 11.9205C20.6847 11.5114 21.6932 11.3068 22.8068 11.3068C23.9318 11.3068 24.9318 11.5085 25.8068 11.9119C26.6818 12.3097 27.375 12.8551 27.8864 13.5483C28.4034 14.2415 28.6761 15.0284 28.7045 15.9091H26.6591Z"/>
</mask>
<path d="M26.6591 15.9091C26.5568 15.0455 26.142 14.375 25.4148 13.8977C24.6875 13.4205 23.7955 13.1818 22.7386 13.1818C21.9659 13.1818 21.2898 13.3068 20.7102 13.5568C20.1364 13.8068 19.6875 14.1506 19.3636 14.5881C19.0455 15.0256 18.8864 15.5227 18.8864 16.0795C18.8864 16.5455 18.9972 16.946 19.2188 17.2812C19.446 17.6108 19.7358 17.8864 20.0881 18.108C20.4403 18.3239 20.8097 18.5028 21.196 18.6449C21.5824 18.7812 21.9375 18.892 22.2614 18.9773L24.0341 19.4545C24.4886 19.5739 24.9943 19.7386 25.5511 19.9489C26.1136 20.1591 26.6506 20.446 27.1619 20.8097C27.679 21.1676 28.1051 21.6278 28.4403 22.1903C28.7756 22.7528 28.9432 23.4432 28.9432 24.2614C28.9432 25.2045 28.696 26.0568 28.2017 26.8182C27.7131 27.5795 26.9972 28.1847 26.054 28.6335C25.1165 29.0824 23.9773 29.3068 22.6364 29.3068C21.3864 29.3068 20.304 29.1051 19.3892 28.7017C18.4801 28.2983 17.7642 27.7358 17.2415 27.0142C16.7244 26.2926 16.4318 25.4545 16.3636 24.5H18.5455C18.6023 25.1591 18.8239 25.7045 19.2102 26.1364C19.6023 26.5625 20.0966 26.8807 20.6932 27.0909C21.2955 27.2955 21.9432 27.3977 22.6364 27.3977C23.4432 27.3977 24.1676 27.267 24.8097 27.0057C25.4517 26.7386 25.9602 26.3693 26.3352 25.8977C26.7102 25.4205 26.8977 24.8636 26.8977 24.2273C26.8977 23.6477 26.7358 23.1761 26.4119 22.8125C26.0881 22.4489 25.6619 22.1534 25.1335 21.9261C24.6051 21.6989 24.0341 21.5 23.4205 21.3295L21.2727 20.7159C19.9091 20.3239 18.8295 19.7642 18.0341 19.0369C17.2386 18.3097 16.8409 17.358 16.8409 16.1818C16.8409 15.2045 17.1051 14.3523 17.6335 13.625C18.1676 12.892 18.8835 12.3239 19.7812 11.9205C20.6847 11.5114 21.6932 11.3068 22.8068 11.3068C23.9318 11.3068 24.9318 11.5085 25.8068 11.9119C26.6818 12.3097 27.375 12.8551 27.8864 13.5483C28.4034 14.2415 28.6761 15.0284 28.7045 15.9091H26.6591Z" fill="white"/>
<path d="M26.6591 15.9091L25.666 16.0267L25.7705 16.9091H26.6591V15.9091ZM25.4148 13.8977L24.8661 14.7338V14.7338L25.4148 13.8977ZM20.7102 13.5568L20.3141 12.6386L20.3108 12.64L20.7102 13.5568ZM19.3636 14.5881L18.5599 13.9931L18.5549 13.9999L19.3636 14.5881ZM19.2188 17.2812L18.3845 17.8327L18.39 17.8409L18.3955 17.849L19.2188 17.2812ZM20.0881 18.108L19.5556 18.9545L19.5655 18.9606L20.0881 18.108ZM21.196 18.6449L20.8509 19.5835L20.8632 19.5879L21.196 18.6449ZM22.2614 18.9773L22.5213 18.0116L22.5159 18.0102L22.2614 18.9773ZM24.0341 19.4545L23.7741 20.4202L23.7802 20.4218L24.0341 19.4545ZM25.5511 19.9489L25.1979 20.8844L25.2011 20.8856L25.5511 19.9489ZM27.1619 20.8097L26.5824 21.6247L26.5927 21.6319L27.1619 20.8097ZM28.4403 22.1903L29.2994 21.6784V21.6784L28.4403 22.1903ZM28.2017 26.8182L27.363 26.2736L27.3601 26.2781L28.2017 26.8182ZM26.054 28.6335L25.6243 27.7306L25.6221 27.7316L26.054 28.6335ZM19.3892 28.7017L18.9836 29.6158L18.9857 29.6167L19.3892 28.7017ZM17.2415 27.0142L16.4286 27.5967L16.4316 27.6009L17.2415 27.0142ZM16.3636 24.5V23.5H15.2897L15.3662 24.5712L16.3636 24.5ZM18.5455 24.5L19.5418 24.4141L19.463 23.5H18.5455V24.5ZM19.2102 26.1364L18.4649 26.8032L18.4743 26.8134L19.2102 26.1364ZM20.6932 27.0909L20.3608 28.0341L20.3716 28.0378L20.6932 27.0909ZM24.8097 27.0057L25.1867 27.9319L25.1937 27.929L24.8097 27.0057ZM26.3352 25.8977L27.1179 26.5201L27.1215 26.5155L26.3352 25.8977ZM26.4119 22.8125L27.1587 22.1474H27.1587L26.4119 22.8125ZM25.1335 21.9261L24.7384 22.8448V22.8448L25.1335 21.9261ZM23.4205 21.3295L23.1457 22.2911L23.1528 22.2931L23.4205 21.3295ZM21.2727 20.7159L20.9964 21.677L20.998 21.6774L21.2727 20.7159ZM18.0341 19.0369L17.3593 19.775H17.3593L18.0341 19.0369ZM17.6335 13.625L16.8253 13.0361L16.8245 13.0372L17.6335 13.625ZM19.7812 11.9205L20.1911 12.8326L20.1938 12.8314L19.7812 11.9205ZM25.8068 11.9119L25.3881 12.8201L25.393 12.8223L25.8068 11.9119ZM27.8864 13.5483L27.0816 14.142L27.0848 14.1462L27.8864 13.5483ZM28.7045 15.9091V16.9091H29.7373L29.704 15.8768L28.7045 15.9091ZM26.6591 15.9091L27.6522 15.7915C27.5151 14.6344 26.9376 13.701 25.9634 13.0617L25.4148 13.8977L24.8661 14.7338C25.3465 15.049 25.5985 15.4565 25.666 16.0267L26.6591 15.9091ZM25.4148 13.8977L25.9634 13.0617C25.0411 12.4564 23.9481 12.1818 22.7386 12.1818V13.1818V14.1818C23.6428 14.1818 24.3339 14.3845 24.8661 14.7338L25.4148 13.8977ZM22.7386 13.1818V12.1818C21.8595 12.1818 21.0435 12.324 20.3141 12.6386L20.7102 13.5568L21.1063 14.475C21.5361 14.2896 22.0724 14.1818 22.7386 14.1818V13.1818ZM20.7102 13.5568L20.3108 12.64C19.6007 12.9494 19.0028 13.3948 18.5599 13.9931L19.3636 14.5881L20.1674 15.183C20.3722 14.9064 20.672 14.6643 21.1096 14.4736L20.7102 13.5568ZM19.3636 14.5881L18.5549 13.9999C18.1086 14.6136 17.8864 15.318 17.8864 16.0795H18.8864H19.8864C19.8864 15.7274 19.9823 15.4375 20.1724 15.1762L19.3636 14.5881ZM18.8864 16.0795H17.8864C17.8864 16.7095 18.0384 17.3091 18.3845 17.8327L19.2188 17.2812L20.053 16.7298C19.9559 16.583 19.8864 16.3814 19.8864 16.0795H18.8864ZM19.2188 17.2812L18.3955 17.849C18.7029 18.2946 19.0932 18.6635 19.5556 18.9544L20.0881 18.108L20.6205 17.2615C20.3784 17.1092 20.1892 16.927 20.042 16.7135L19.2188 17.2812ZM20.0881 18.108L19.5655 18.9606C19.9738 19.2108 20.4025 19.4186 20.851 19.5835L21.196 18.6449L21.5411 17.7063C21.2168 17.5871 20.9069 17.437 20.6106 17.2554L20.0881 18.108ZM21.196 18.6449L20.8632 19.5879C21.2699 19.7314 21.6515 19.8508 22.0069 19.9443L22.2614 18.9773L22.5159 18.0102C22.2235 17.9333 21.8949 17.8311 21.5288 17.7019L21.196 18.6449ZM22.2614 18.9773L22.0014 19.9429L23.7741 20.4202L24.0341 19.4545L24.2941 18.4889L22.5213 18.0117L22.2614 18.9773ZM24.0341 19.4545L23.7802 20.4218C24.1936 20.5303 24.6655 20.6834 25.1979 20.8844L25.5511 19.9489L25.9044 19.0133C25.3231 18.7939 24.7836 18.6174 24.288 18.4873L24.0341 19.4545ZM25.5511 19.9489L25.2011 20.8856C25.6785 21.064 26.1387 21.3091 26.5824 21.6246L27.1619 20.8097L27.7415 19.9947C27.1624 19.5829 26.5488 19.2542 25.9012 19.0121L25.5511 19.9489ZM27.1619 20.8097L26.5927 21.6319C26.9872 21.9049 27.3163 22.2575 27.5813 22.7023L28.4403 22.1903L29.2994 21.6784C28.8939 20.9981 28.3708 20.4303 27.7311 19.9875L27.1619 20.8097ZM28.4403 22.1903L27.5813 22.7023C27.8039 23.0757 27.9432 23.5789 27.9432 24.2614H28.9432H29.9432C29.9432 23.3075 29.7473 22.43 29.2994 21.6784L28.4403 22.1903ZM28.9432 24.2614H27.9432C27.9432 25.0192 27.7478 25.6809 27.363 26.2736L28.2017 26.8182L29.0404 27.3627C29.6443 26.4327 29.9432 25.3899 29.9432 24.2614H28.9432ZM28.2017 26.8182L27.3601 26.2781C26.987 26.8594 26.4255 27.3492 25.6243 27.7306L26.054 28.6335L26.4837 29.5365C27.5688 29.0201 28.4391 28.2997 29.0433 27.3583L28.2017 26.8182ZM26.054 28.6335L25.6221 27.7316C24.8527 28.1 23.8696 28.3068 22.6364 28.3068V29.3068V30.3068C24.0849 30.3068 25.3803 30.0648 26.4858 29.5355L26.054 28.6335ZM22.6364 29.3068V28.3068C21.4916 28.3068 20.5528 28.1219 19.7927 27.7867L19.3892 28.7017L18.9857 29.6167C20.0552 30.0883 21.2811 30.3068 22.6364 30.3068V29.3068ZM19.3892 28.7017L19.7948 27.7877C19.0278 27.4473 18.4589 26.9902 18.0513 26.4276L17.2415 27.0142L16.4316 27.6009C17.0695 28.4814 17.9324 29.1493 18.9836 29.6158L19.3892 28.7017ZM17.2415 27.0142L18.0543 26.4318C17.6532 25.872 17.4172 25.2141 17.3611 24.4288L16.3636 24.5L15.3662 24.5712C15.4464 25.695 15.7956 26.7133 16.4286 27.5967L17.2415 27.0142ZM16.3636 24.5V25.5H18.5455V24.5V23.5H16.3636V24.5ZM18.5455 24.5L17.5491 24.5859C17.6218 25.4288 17.9143 26.1876 18.465 26.8032L19.2102 26.1364L19.9555 25.4696C19.7335 25.2214 19.5827 24.8894 19.5418 24.4141L18.5455 24.5ZM19.2102 26.1364L18.4743 26.8134C18.9871 27.3708 19.6245 27.7746 20.3608 28.0341L20.6932 27.0909L21.0255 26.1478C20.5686 25.9868 20.2175 25.7542 19.9462 25.4593L19.2102 26.1364ZM20.6932 27.0909L20.3716 28.0378C21.0863 28.2805 21.8436 28.3977 22.6364 28.3977V27.3977V26.3977C22.0428 26.3977 21.5046 26.3104 21.0148 26.144L20.6932 27.0909ZM22.6364 27.3977V28.3977C23.5515 28.3977 24.407 28.2493 25.1867 27.9319L24.8097 27.0057L24.4326 26.0795C23.9283 26.2848 23.3348 26.3977 22.6364 26.3977V27.3977ZM24.8097 27.0057L25.1937 27.929C25.9677 27.6071 26.6224 27.1433 27.1179 26.5201L26.3352 25.8977L25.5525 25.2753C25.2981 25.5953 24.9358 25.8702 24.4256 26.0824L24.8097 27.0057ZM26.3352 25.8977L27.1215 26.5155C27.642 25.8531 27.8977 25.076 27.8977 24.2273H26.8977H25.8977C25.8977 24.6512 25.7784 24.9878 25.5489 25.2799L26.3352 25.8977ZM26.8977 24.2273H27.8977C27.8977 23.4517 27.6757 22.7279 27.1587 22.1474L26.4119 22.8125L25.6652 23.4776C25.7959 23.6244 25.8977 23.8438 25.8977 24.2273H26.8977ZM26.4119 22.8125L27.1587 22.1474C26.7215 21.6565 26.1673 21.2822 25.5286 21.0075L25.1335 21.9261L24.7384 22.8448C25.1566 23.0246 25.4546 23.2412 25.6652 23.4776L26.4119 22.8125ZM25.1335 21.9261L25.5286 21.0075C24.9547 20.7606 24.3406 20.5473 23.6881 20.366L23.4205 21.3295L23.1528 22.2931C23.7275 22.4527 24.2556 22.6371 24.7384 22.8448L25.1335 21.9261ZM23.4205 21.3295L23.6952 20.368L21.5474 19.7544L21.2727 20.7159L20.998 21.6774L23.1457 22.2911L23.4205 21.3295ZM21.2727 20.7159L21.549 19.7548C20.2886 19.3925 19.3603 18.8945 18.7089 18.2989L18.0341 19.0369L17.3593 19.775C18.2988 20.6339 19.5296 21.2553 20.9964 21.677L21.2727 20.7159ZM18.0341 19.0369L18.7089 18.2989C18.1408 17.7796 17.8409 17.1058 17.8409 16.1818H16.8409H15.8409C15.8409 17.6101 16.3364 18.8398 17.3593 19.775L18.0341 19.0369ZM16.8409 16.1818H17.8409C17.8409 15.3963 18.0492 14.7542 18.4425 14.2128L17.6335 13.625L16.8245 13.0372C16.161 13.9504 15.8409 15.0128 15.8409 16.1818H16.8409ZM17.6335 13.625L18.4417 14.2139C18.8648 13.6333 19.4381 13.171 20.1911 12.8326L19.7812 11.9205L19.3714 11.0083C18.3289 11.4767 17.4705 12.1507 16.8253 13.0361L17.6335 13.625ZM19.7812 11.9205L20.1938 12.8314C20.9525 12.4878 21.8179 12.3068 22.8068 12.3068V11.3068V10.3068C21.5685 10.3068 20.4168 10.5349 19.3687 11.0095L19.7812 11.9205ZM22.8068 11.3068V12.3068C23.8113 12.3068 24.6646 12.4865 25.3881 12.8201L25.8068 11.9119L26.2255 11.0038C25.199 10.5305 24.0523 10.3068 22.8068 10.3068V11.3068ZM25.8068 11.9119L25.393 12.8223C26.1312 13.1578 26.6828 13.6013 27.0816 14.1419L27.8864 13.5483L28.6911 12.9546C28.0672 12.109 27.2325 11.4615 26.2206 11.0016L25.8068 11.9119ZM27.8864 13.5483L27.0848 14.1462C27.4771 14.6722 27.6831 15.2609 27.7051 15.9413L28.7045 15.9091L29.704 15.8768C29.6692 14.7959 29.3297 13.8107 28.6879 12.9504L27.8864 13.5483ZM28.7045 15.9091V14.9091H26.6591V15.9091V16.9091H28.7045V15.9091Z" fill="white" mask="url(#path-3-outside-1_0_1)"/>
</svg>
